<svg id="visual" viewBox="0 0 540 960" width="540" height="960" xmlns="http://www.w3.org/2000/svg" xmlns:xlink="http://www.w3.org/1999/xlink" version="1.1"><path d="M442 960L485 960L485 880L469 880L469 800L463 800L463 720L453 720L453 640L474 640L474 560L480 560L480 480L447 480L447 400L480 400L480 320L469 320L469 240L453 240L453 160L474 160L474 80L474 80L474 0L540 0L540 80L540 80L540 160L540 160L540 240L540 240L540 320L540 320L540 400L540 400L540 480L540 480L540 560L540 560L540 640L540 640L540 720L540 720L540 800L540 800L540 880L540 880L540 960L540 960Z" fill="#162456"></path><path d="M296 960L355 960L355 880L318 880L318 800L291 800L291 720L334 720L334 640L355 640L355 560L323 560L323 480L280 480L280 400L301 400L301 320L323 320L323 240L355 240L355 160L274 160L274 80L307 80L307 0L475 0L475 80L475 80L475 160L454 160L454 240L470 240L470 320L481 320L481 400L448 400L448 480L481 480L481 560L475 560L475 640L454 640L454 720L464 720L464 800L470 800L470 880L486 880L486 960L443 960Z" fill="#1f3377"></path><path d="M199 960L226 960L226 880L193 880L193 800L172 800L172 720L264 720L264 640L264 640L264 560L253 560L253 480L161 480L161 400L193 400L193 320L237 320L237 240L242 240L242 160L188 160L188 80L204 80L204 0L308 0L308 80L275 80L275 160L356 160L356 240L324 240L324 320L302 320L302 400L281 400L281 480L324 480L324 560L356 560L356 640L335 640L335 720L292 720L292 800L319 800L319 880L356 880L356 960L297 960Z" fill="#253c8c"></path><path d="M48 960L42 960L42 880L48 880L48 800L64 800L64 720L69 720L69 640L80 640L80 560L58 560L58 480L58 480L58 400L64 400L64 320L53 320L53 240L58 240L58 160L64 160L64 80L75 80L75 0L205 0L205 80L189 80L189 160L243 160L243 240L238 240L238 320L194 320L194 400L162 400L162 480L254 480L254 560L265 560L265 640L265 640L265 720L173 720L173 800L194 800L194 880L227 880L227 960L200 960Z" fill="#1f3377"></path><path d="M0 960L0 960L0 880L0 880L0 800L0 800L0 720L0 720L0 640L0 640L0 560L0 560L0 480L0 480L0 400L0 400L0 320L0 320L0 240L0 240L0 160L0 160L0 80L0 80L0 0L76 0L76 80L65 80L65 160L59 160L59 240L54 240L54 320L65 320L65 400L59 400L59 480L59 480L59 560L81 560L81 640L70 640L70 720L65 720L65 800L49 800L49 880L43 880L43 960L49 960Z" fill="#162456"></path></svg>