<svg id="visual" viewBox="0 0 960 540" width="960" height="540" xmlns="http://www.w3.org/2000/svg" xmlns:xlink="http://www.w3.org/1999/xlink" version="1.1"><path d="M786 540L863 540L863 495L834 495L834 450L825 450L825 405L805 405L805 360L844 360L844 315L853 315L853 270L796 270L796 225L853 225L853 180L834 180L834 135L805 135L805 90L844 90L844 45L844 45L844 0L960 0L960 45L960 45L960 90L960 90L960 135L960 135L960 180L960 180L960 225L960 225L960 270L960 270L960 315L960 315L960 360L960 360L960 405L960 405L960 450L960 450L960 495L960 495L960 540L960 540Z" fill="#162456"></path><path d="M527 540L633 540L633 495L565 495L565 450L517 450L517 405L594 405L594 360L633 360L633 315L575 315L575 270L498 270L498 225L537 225L537 180L575 180L575 135L633 135L633 90L489 90L489 45L546 45L546 0L845 0L845 45L845 45L845 90L806 90L806 135L835 135L835 180L854 180L854 225L797 225L797 270L854 270L854 315L845 315L845 360L806 360L806 405L826 405L826 450L835 450L835 495L864 495L864 540L787 540Z" fill="#1f3377"></path><path d="M354 540L402 540L402 495L345 495L345 450L306 450L306 405L469 405L469 360L469 360L469 315L450 315L450 270L287 270L287 225L345 225L345 180L421 180L421 135L431 135L431 90L335 90L335 45L364 45L364 0L547 0L547 45L490 45L490 90L634 90L634 135L576 135L576 180L538 180L538 225L499 225L499 270L576 270L576 315L634 315L634 360L595 360L595 405L518 405L518 450L566 450L566 495L634 495L634 540L528 540Z" fill="#253c8c"></path><path d="M85 540L76 540L76 495L85 495L85 450L114 450L114 405L124 405L124 360L143 360L143 315L105 315L105 270L105 270L105 225L114 225L114 180L95 180L95 135L105 135L105 90L114 90L114 45L133 45L133 0L365 0L365 45L336 45L336 90L432 90L432 135L422 135L422 180L346 180L346 225L288 225L288 270L451 270L451 315L470 315L470 360L470 360L470 405L307 405L307 450L346 450L346 495L403 495L403 540L355 540Z" fill="#1f3377"></path><path d="M0 540L0 540L0 495L0 495L0 450L0 450L0 405L0 405L0 360L0 360L0 315L0 315L0 270L0 270L0 225L0 225L0 180L0 180L0 135L0 135L0 90L0 90L0 45L0 45L0 0L134 0L134 45L115 45L115 90L106 90L106 135L96 135L96 180L115 180L115 225L106 225L106 270L106 270L106 315L144 315L144 360L125 360L125 405L115 405L115 450L86 450L86 495L77 495L77 540L86 540Z" fill="#162456"></path></svg>